<svg width="140" height="34" viewBox="0 0 140 34" fill="none" xmlns="http://www.w3.org/2000/svg">
<path d="M0 33.0527H32.0971V0.947266H0V33.0527ZM20.5728 3.39918C26.246 5.25899 30.3458 10.6387 30.3612 16.9939C30.3766 23.2457 26.3597 28.6125 20.5728 30.5957V3.39918ZM16.0434 2.67157C17.0684 2.67157 18.1601 2.80836 19.0695 2.98946C19.0695 10.263 12.0361 16.2489 4.77732 16.2489L1.74229 16.2444C2.23999 8.78851 8.40831 2.67157 16.0434 2.67157ZM4.77989 17.7632C12.0374 17.7632 19.0682 23.7428 19.0682 31.0092C18.1601 31.1948 17.0138 31.3329 16.0434 31.3329C8.40574 31.3226 2.02871 25.1871 1.74036 17.7632H4.77989ZM42.8417 19.8208V17.7973H49.5206V15.2176H42.8404V11.4613H49.9464V8.88741H40.1066V19.704C40.1066 22.4385 41.2709 24.3085 44.0041 24.6926C44.0587 24.7061 44.1126 24.7163 44.1627 24.7176H44.2122C44.4922 24.7491 44.778 24.7696 45.0779 24.7696H50.1358V22.1989H45.1003C44.2314 22.1989 42.8417 21.7699 42.8417 19.8208ZM52.0785 24.7735H54.8136V8.88356H52.0785V24.7735ZM62.843 12.9204C59.3861 12.9204 56.7986 15.3023 56.7986 19.011V19.1029C56.7986 22.721 59.2942 25.0567 62.9117 25.0567C64.6514 25.0567 66.2768 24.5763 67.7648 22.9952L66.1163 21.393C65.2461 22.2631 64.3991 22.721 63.0029 22.721C60.9652 22.721 59.6147 21.5304 59.5228 19.6982H68.4969C68.5425 19.2403 68.5425 18.7368 68.5425 18.7368C68.5438 15.5078 66.2769 12.9204 62.843 12.9204ZM59.5922 17.7748C59.7065 16.3774 61.1264 15.2555 62.843 15.2555C64.4453 15.2555 65.7503 16.4005 65.7503 17.7748H59.5922ZM76.229 15.3704C77.4652 15.3704 78.3817 15.8289 79.1594 16.6298L80.8535 14.8663C79.5254 13.4464 77.9462 12.8742 76.229 12.8742C72.7489 12.8742 69.956 15.4616 69.956 18.9879C69.956 22.5142 72.7489 25.1023 76.229 25.1023C77.9462 25.1023 79.5261 24.5301 80.8535 23.1102L79.1594 21.3467C78.3817 22.1482 77.4652 22.6061 76.229 22.6061C74.2138 22.6061 72.6802 21.0712 72.6802 18.9879C72.6802 16.9046 74.2138 15.3704 76.229 15.3704ZM85.2911 19.8253H85.2879V15.7686H87.7751V13.2833H85.2911V8.8842H82.5559V19.9865L82.5637 19.9859C82.642 22.5675 83.8147 24.3259 86.4535 24.6964C86.508 24.7099 86.562 24.7202 86.6121 24.7208H86.6615C86.9415 24.7523 87.2273 24.7735 87.5272 24.7735H87.8168L87.8265 22.2028H87.5497C86.6808 22.2028 85.2911 21.7744 85.2911 19.8253ZM92.7894 14.9922V13.2839H90.0767V24.7735H92.7894V18.7317C92.7894 16.8398 93.9974 15.6536 95.8886 15.6536C96.3215 15.6536 96.7094 15.6986 97.0285 15.7679V13.124C96.9142 13.1015 96.5045 13.0553 96.2085 13.0553C94.567 13.0559 93.3365 13.8086 92.7894 14.9922ZM103.716 12.9416C100.229 12.9416 97.4473 15.5849 97.4473 19.0284C97.4473 22.4699 100.229 25.1151 103.716 25.1151C107.18 25.1151 109.984 22.4699 109.984 19.0284C109.984 15.5855 107.18 12.9416 103.716 12.9416ZM103.716 22.6305C101.688 22.6305 100.161 21.0564 100.161 19.0284C100.161 16.999 101.688 15.4263 103.716 15.4263C105.723 15.4263 107.272 16.999 107.272 19.0284C107.271 21.0571 105.723 22.6305 103.716 22.6305ZM111.666 24.7735H114.402V8.88356H111.666V24.7735ZM124.267 19.9628C124.267 21.786 123.196 22.5624 121.759 22.5624C120.323 22.5624 119.252 21.786 119.252 19.9872V13.2839H116.494V20.2145C116.494 23.4974 118.887 25.0702 121.736 25.0702C124.608 25.0702 127.024 23.4743 127.024 20.1458V13.2839H124.267V19.9628ZM137.373 21.0995L135.648 18.6867L137.784 15.7763L139.613 13.2839H136.627L134.142 16.7261L131.635 13.2839H128.672L130.371 15.608L132.638 18.7092L130.262 22.0185L128.284 24.7735H131.224L134.141 20.7154L137.059 24.7735H140L137.373 21.0995Z" fill="white"/>
</svg>
