<svg width="14" height="15" viewBox="0 0 14 15" fill="none" xmlns="http://www.w3.org/2000/svg">
<path d="M0.249999 2.25L0.25 12.75C0.25 13.5825 0.925 14.25 1.75 14.25L12.25 14.25C13.075 14.25 13.75 13.5825 13.75 12.75L13.75 2.25C13.75 1.425 13.075 0.749999 12.25 0.749999L1.75 0.75C0.924999 0.75 0.249999 1.425 0.249999 2.25ZM7.75 4.5L7.75 6.75L10 6.75C10.4125 6.75 10.75 7.0875 10.75 7.5C10.75 7.9125 10.4125 8.25 10 8.25L7.75 8.25L7.75 10.5C7.75 10.9125 7.4125 11.25 7 11.25C6.5875 11.25 6.25 10.9125 6.25 10.5L6.25 8.25L4 8.25C3.5875 8.25 3.25 7.9125 3.25 7.5C3.25 7.0875 3.5875 6.75 4 6.75L6.25 6.75L6.25 4.5C6.25 4.0875 6.5875 3.75 7 3.75C7.4125 3.75 7.75 4.0875 7.75 4.5Z" fill="#011E41"/>
</svg>
