<svg width="24" height="24" viewBox="0 0 24 24" fill="none" xmlns="http://www.w3.org/2000/svg">
<g clip-path="url(#clip0_6645_3670)">
<path d="M0 24.04H24.0728V-0.0390625H0V24.04ZM15.4296 1.79987C19.6845 3.19473 22.7594 7.2295 22.7709 11.9959C22.7825 16.6848 19.7698 20.7099 15.4296 22.1972V1.79987ZM12.0326 1.25417C12.8013 1.25417 13.6201 1.35676 14.3021 1.49258C14.3021 6.94774 9.02707 11.4372 3.58299 11.4372L1.30671 11.4338C1.67999 5.84187 6.30623 1.25417 12.0326 1.25417ZM3.58491 12.5729C9.02803 12.5729 14.3011 17.0576 14.3011 22.5074C13.6201 22.6466 12.7603 22.7502 12.0326 22.7502C6.30431 22.7425 1.52153 18.1408 1.30527 12.5729H3.58491ZM32.1313 14.1161V12.5984H37.1404V10.6637H32.1303V7.8465H37.4598V5.91605H30.08V14.0285C30.08 16.0793 30.9532 17.4819 33.0031 17.7699C33.044 17.78 33.0845 17.7877 33.122 17.7887H33.1591C33.3691 17.8123 33.5835 17.8277 33.8084 17.8277H37.6019V15.8997H33.8253C33.1736 15.8997 32.1313 15.5779 32.1313 14.1161ZM39.0589 17.8306H41.1102V5.91316H39.0589V17.8306ZM47.1323 8.9408C44.5395 8.9408 42.599 10.7272 42.599 13.5088V13.5776C42.599 16.2913 44.4707 18.043 47.1838 18.043C48.4886 18.043 49.7076 17.6827 50.8236 16.4969L49.5872 15.2952C48.9346 15.9478 48.2993 16.2913 47.2522 16.2913C45.7239 16.2913 44.711 15.3983 44.6421 14.0241H51.3727C51.4069 13.6807 51.4069 13.3031 51.4069 13.3031C51.4079 10.8814 49.7076 8.9408 47.1323 8.9408ZM44.6942 12.5816C44.7799 11.5335 45.8448 10.6921 47.1323 10.6921C48.334 10.6921 49.3127 11.5509 49.3127 12.5816H44.6942ZM57.1717 10.7783C58.0989 10.7783 58.7862 11.1222 59.3695 11.7228L60.6401 10.4002C59.6441 9.33527 58.4597 8.90613 57.1717 8.90613C54.5617 8.90613 52.467 10.8467 52.467 13.4914C52.467 16.1362 54.5617 18.0772 57.1717 18.0772C58.4597 18.0772 59.6445 17.6481 60.6401 16.5831L59.3695 15.2605C58.7862 15.8616 58.0989 16.205 57.1717 16.205C55.6603 16.205 54.5102 15.0539 54.5102 13.4914C54.5102 11.929 55.6603 10.7783 57.1717 10.7783ZM63.9683 14.1195H63.9659V11.0769H65.8313V9.21294H63.9683V5.91364H61.917V14.2404L61.9227 14.2399C61.9815 16.1761 62.861 17.4949 64.8401 17.7728C64.881 17.7829 64.9215 17.7906 64.9591 17.7911H64.9961C65.2061 17.8147 65.4205 17.8306 65.6454 17.8306H65.8626L65.8699 15.9026H65.6623C65.0106 15.9026 63.9683 15.5813 63.9683 14.1195ZM69.592 10.4946V9.21342H67.5576V17.8306H69.592V13.2992C69.592 11.8803 70.498 10.9907 71.9165 10.9907C72.2411 10.9907 72.532 11.0244 72.7714 11.0764V9.09349C72.6857 9.07663 72.3784 9.04195 72.1563 9.04195C70.9252 9.04243 70.0024 9.60693 69.592 10.4946ZM77.7873 8.9567C75.1715 8.9567 73.0854 10.9392 73.0854 13.5218C73.0854 16.1029 75.1715 18.0868 77.7873 18.0868C80.3848 18.0868 82.4882 16.1029 82.4882 13.5218C82.4877 10.9396 80.3848 8.9567 77.7873 8.9567ZM77.7873 16.2233C76.2658 16.2233 75.1209 15.0428 75.1209 13.5218C75.1209 11.9998 76.2658 10.8202 77.7873 10.8202C79.292 10.8202 80.4537 11.9998 80.4537 13.5218C80.4532 15.0433 79.292 16.2233 77.7873 16.2233ZM83.7492 17.8306H85.8015V5.91316H83.7492V17.8306ZM93.2001 14.2226C93.2001 15.59 92.3967 16.1723 91.3192 16.1723C90.2423 16.1723 89.4394 15.59 89.4394 14.2409V9.21342H87.3707V14.4114C87.3707 16.8736 89.1653 18.0531 91.3024 18.0531C93.4563 18.0531 95.2678 16.8562 95.2678 14.3598V9.21342H93.2001V14.2226ZM103.03 15.0751L101.736 13.2655L103.338 11.0827L104.71 9.21342H102.47L100.606 11.7951L98.726 9.21342H96.5042L97.7782 10.9565L99.4784 13.2824L97.6963 15.7643L96.2133 17.8306H98.4183L100.606 14.7871L102.795 17.8306H105L103.03 15.0751Z" fill="white"/>
</g>
<defs>
<clipPath id="clip0_6645_3670">
<rect width="24" height="24" fill="white"/>
</clipPath>
</defs>
</svg>
