<svg width="17" height="17" viewBox="0 0 17 17" fill="none" xmlns="http://www.w3.org/2000/svg">
<path fill-rule="evenodd" clip-rule="evenodd" d="M4.20301 11.0608C4.20301 10.2275 4.20259 10.2275 4.20259 10.2275L4.20115 10.2275L4.19886 10.2275L4.19294 10.2275L4.17597 10.2277C4.16243 10.2279 4.14445 10.2283 4.1225 10.2291C4.07867 10.2306 4.01852 10.2335 3.94574 10.2391C3.80133 10.2502 3.60124 10.2724 3.37666 10.3173C2.95947 10.4007 2.31773 10.589 1.84598 11.0608C1.49741 11.4094 1.37606 11.9234 1.31862 12.268C1.25258 12.6642 1.23362 13.1025 1.23362 13.4915C1.23362 13.8857 1.25326 14.2564 1.27257 14.5268C1.28227 14.6626 1.29201 14.7747 1.29941 14.8536C1.30311 14.8931 1.30624 14.9244 1.30849 14.9464L1.31119 14.9721L1.31199 14.9795L1.31235 14.9828C1.31235 14.9828 1.31238 14.983 2.14061 14.891L1.31235 14.9828C1.35539 15.3701 1.66121 15.6761 2.04859 15.7192L2.14061 14.891C2.04859 15.7192 2.04859 15.7192 2.04859 15.7192L2.04986 15.7193L2.05211 15.7196L2.05946 15.7204L2.0852 15.7231C2.10713 15.7253 2.13842 15.7285 2.17792 15.7322C2.25685 15.7396 2.36892 15.7493 2.50477 15.759C2.77513 15.7783 3.1459 15.7979 3.54009 15.7979C3.92907 15.7979 4.36734 15.779 4.76353 15.7129C5.10819 15.6555 5.6222 15.5342 5.97077 15.1856C6.44252 14.7138 6.63083 14.0721 6.71427 13.6549C6.75918 13.4303 6.78134 13.2302 6.79245 13.0858C6.79804 13.013 6.80095 12.9529 6.80246 12.9091C6.80322 12.8871 6.80363 12.8691 6.80385 12.8556L6.80406 12.8386L6.8041 12.8327L6.80411 12.8304L6.80411 12.8294C6.80411 12.8294 5.41294 12.8286 6.80411 12.8286C6.80411 12.3683 6.43101 11.9952 5.97077 11.9952C5.51067 11.9952 5.13765 12.3681 5.13744 12.8282L5.13744 12.8271L5.13744 12.8261L5.13744 12.8282C5.13737 12.8322 5.13718 12.8402 5.13678 12.8516C5.13599 12.8745 5.1343 12.9111 5.13069 12.958C5.12338 13.053 5.10871 13.1843 5.07997 13.328C5.01962 13.6298 4.9214 13.8626 4.81164 13.9864C4.80217 13.9878 4.71789 14.0309 4.48954 14.069C4.22282 14.1134 3.88768 14.1313 3.54009 14.1313C3.32074 14.1313 3.10688 14.1242 2.91702 14.1145C2.90735 13.9247 2.90029 13.7108 2.90029 13.4915C2.90029 13.1439 2.91815 12.8087 2.96261 12.542C3.00066 12.3137 3.04374 12.2294 3.04512 12.2199C3.16901 12.1102 3.40181 12.0119 3.70352 11.9516C3.84724 11.9229 3.9786 11.9082 4.07357 11.9009C4.12048 11.8973 4.15702 11.8956 4.17994 11.8948C4.19136 11.8944 4.19928 11.8942 4.20329 11.8942M4.20589 11.8941C4.6648 11.8926 5.03634 11.5201 5.03634 11.0608C5.03634 10.6006 4.66282 10.2275 4.20259 10.2275L4.20301 11.0608" fill="white"/>
<path fill-rule="evenodd" clip-rule="evenodd" d="M15.4817 0.803105C15.8763 0.842598 16.1884 1.15474 16.2279 1.54938C16.5441 4.71156 15.5968 7.43016 14.1019 9.32951C13.7405 9.7886 13.342 10.2052 12.9169 10.5699C13.4431 11.5113 13.5629 12.6156 13.1205 13.6479C12.5237 15.0405 11.0215 16.0355 8.78948 16.3542C8.55033 16.3884 8.30813 16.317 8.12563 16.1588C7.94314 16.0005 7.83832 15.7708 7.83834 15.5292C7.83845 13.8591 8.09102 12.9023 8.24996 12.3002L8.25021 12.2993C8.26673 12.2367 8.28227 12.1778 8.29638 12.1225C8.19905 12.081 8.10977 12.0211 8.03384 11.9451L5.0871 8.99839C5.00451 8.9158 4.94083 8.81743 4.89926 8.71007C4.84014 8.72506 4.77706 8.74171 4.70952 8.75954C4.10743 8.91848 3.15048 9.1711 1.48037 9.17121C1.24352 9.17123 1.01786 9.07046 0.859773 8.8941C0.701688 8.71773 0.626117 8.48243 0.651947 8.247C0.902523 5.96309 1.85395 4.4034 3.26947 3.79677C4.34256 3.33689 5.49447 3.50567 6.47642 4.09724C6.83743 3.67858 7.24884 3.28593 7.70158 2.92946C9.60066 1.43414 12.3192 0.486619 15.4817 0.803105ZM11.5342 11.5192C11.0381 11.7818 10.5244 11.9753 10.0056 12.0884C9.98452 12.2358 9.95226 12.3713 9.92234 12.4908C9.90444 12.5624 9.8848 12.6369 9.86411 12.7153C9.75345 13.1347 9.6126 13.6685 9.5449 14.4937C10.7581 14.1369 11.3575 13.5307 11.5886 12.9913C11.7804 12.544 11.7719 12.0226 11.5342 11.5192ZM12.7922 8.29871C12.4555 8.72655 12.0942 9.09355 11.7216 9.39928C11.7182 9.39886 11.7148 9.39845 11.7114 9.39807C10.8028 10.142 9.82747 10.522 8.97742 10.5317L6.48995 8.04423C6.50342 6.84357 7.25501 5.39299 8.72737 4.23367C10.1545 3.10994 12.1886 2.32818 14.611 2.4094C14.6111 2.4111 14.6111 2.41279 14.6112 2.41448C14.6129 2.41454 14.6146 2.4146 14.6163 2.41465C14.6973 4.83689 13.9157 6.87124 12.7922 8.29871ZM4.94942 7.00006C5.06532 6.48077 5.26158 5.96672 5.52693 5.47055C4.95632 5.15649 4.38515 5.13191 3.92598 5.32869C3.39614 5.55576 2.79385 6.17291 2.47482 7.46794C3.32339 7.4016 3.8679 7.25793 4.2942 7.14546C4.37263 7.12477 4.44711 7.10511 4.5187 7.08721C4.6459 7.05539 4.79101 7.02092 4.94942 7.00006Z" fill="white"/>
<path d="M11.617 7.86822C10.9662 8.5191 9.91089 8.5191 9.26002 7.86822C8.60914 7.21735 8.60914 6.16208 9.26002 5.5112C9.91089 4.86033 10.9662 4.86033 11.617 5.5112C12.2679 6.16208 12.2679 7.21735 11.617 7.86822Z" fill="white"/>
</svg>
